<svg width="509" height="417" viewBox="0 0 509 417" fill="none" xmlns="http://www.w3.org/2000/svg">
<g clip-path="url(#clip0_91_996)">
<path d="M0 53.4C0 20.45 31.06 -6.29001 65.07 1.29999C87.5 6.29999 104.18 26 106 48.91C108.53 80.71 83.97 106.8 53.39 106.8C24.27 106.79 0 83.13 0 53.4Z" fill="black"/>
<path d="M53.0901 130.86C33.9301 130.86 16.7401 121.43 6.06006 106.87V403.81C6.06006 410.58 11.5501 416.07 18.3201 416.07H87.8501C94.6201 416.07 100.11 410.58 100.11 403.81V106.25C89.6801 121.17 72.5201 130.86 53.0901 130.86Z" fill="black"/>
<path d="M259.09 263.74V405.85C259.09 411.5 254.51 416.07 248.87 416.07H175.27C169.62 416.07 165.05 411.49 165.05 405.85V252.48C165.05 157.1 221.35 78.95 335.93 78.95C450.51 78.95 508.14 156.44 508.14 252.48V405.85C508.14 411.5 503.56 416.07 497.92 416.07H424.32C418.67 416.07 414.1 411.49 414.1 405.85V263.74C414.1 213.4 389.59 170.35 335.94 170.35C282.94 170.35 259.09 213.4 259.09 263.74Z" fill="black"/>
<path d="M299.53 378.81C299.53 358.49 316.04 341.55 336.8 341.55C357.12 341.55 373.64 358.49 373.64 378.81C373.64 399.14 357.13 416.07 336.8 416.07C316.05 416.07 299.53 399.14 299.53 378.81Z" fill="black"/>
</g>
<defs>
<clipPath id="clip0_91_996">
<rect width="508.13" height="416.07" fill="white"/>
</clipPath>
</defs>
</svg>
